<svg width="150" height="70" viewBox="0 0 150 70" fill="none" xmlns="http://www.w3.org/2000/svg"><g id="logo 1" clip-path="url(#clip0_240_2)"><g id="Group 1"><path id="Path 1" d="M77.451 66.41C77.4506 66.7126 77.3901 67.0122 77.2729 67.2912C77.1556 67.5702 76.9841 67.8232 76.7682 68.0353C76.5523 68.2473 76.2963 68.4144 76.0153 68.5266C75.7342 68.6388 75.4336 68.694 75.131 68.689C74.5787 68.6907 74.0451 68.4887 73.6322 68.1218C73.2194 67.7549 72.9562 67.2487 72.893 66.7V59.78C72.893 58.661 73.1 58.371 74.302 58.371H74.717V57.956H69.785V66.456C69.7744 67.061 69.5321 67.6388 69.1081 68.0704C68.6841 68.502 68.1107 68.7546 67.506 68.776C67.2012 68.7765 66.8993 68.7169 66.6176 68.6005C66.3358 68.4841 66.0799 68.3132 65.8643 68.0977C65.6488 67.8821 65.4779 67.6262 65.3615 67.3444C65.2451 67.0627 65.1855 66.7608 65.186 66.456V60.656C65.186 59.537 65.393 58.791 66.678 58.791H67.051V58.376H62.161V64.55C62.1443 65.7403 61.7015 66.8852 60.913 67.777C60.236 68.3998 59.3468 68.7407 58.427 68.73H51.137C50.6095 68.6723 50.1039 68.4875 49.6636 68.1914C49.2233 67.8953 48.8614 67.4968 48.609 67.03C48.0488 65.9279 47.7776 64.7016 47.821 63.466C47.821 60.482 49.021 58.576 51.799 58.576C53.747 58.576 55.156 59.276 55.321 61.435H55.86C55.86 59.487 55.86 58.742 55.16 58.12C54.497 57.499 53.171 57.25 51.223 57.25C50.3473 57.2203 49.4745 57.3664 48.6561 57.6795C47.8377 57.9926 47.0903 58.4664 46.458 59.073C45.8859 59.6492 45.4366 60.3356 45.1376 61.0906C44.8385 61.8455 44.6957 62.6533 44.718 63.465C44.6787 64.5134 44.919 65.5533 45.4142 66.4782C45.9094 67.403 46.6417 68.1795 47.536 68.728H43.669C41.224 68.728 39.815 67.319 39.691 64.501V63.548C39.7094 61.9003 39.0853 60.3102 37.951 59.115C37.3186 58.5081 36.5711 58.0341 35.7525 57.7208C34.934 57.4075 34.061 57.2614 33.185 57.291C31.237 57.291 29.911 57.54 29.248 58.203C28.548 58.825 28.548 59.57 28.548 61.518H29.087C29.252 59.318 30.662 58.659 32.609 58.659C35.303 58.659 36.587 60.565 36.587 63.548C36.6491 64.8454 36.3169 66.1311 35.634 67.236C35.3041 67.7175 34.8571 68.1071 34.335 68.3681C33.813 68.6291 33.2331 68.753 32.65 68.728H28.253V69.764H33.184C34.1543 69.8057 35.1214 69.6259 36.0118 69.2381C36.9022 68.8504 37.6926 68.2648 38.323 67.526C38.5785 68.0201 38.948 68.4462 39.401 68.769C40.0973 69.419 41.0175 69.7754 41.97 69.764H60.089C60.804 69.7405 61.506 69.566 62.1487 69.2518C62.7914 68.9376 63.3603 68.4908 63.818 67.941C64.2807 68.5228 64.8766 68.9846 65.5554 69.2875C66.2342 69.5904 66.976 69.7253 67.718 69.681C68.4485 69.6813 69.1669 69.495 69.8052 69.1397C70.4434 68.7844 70.9803 68.272 71.365 67.651C71.5027 68.0274 71.7231 68.368 72.0101 68.6477C72.2971 68.9274 72.6432 69.139 73.023 69.267C73.7278 69.5815 74.4884 69.7515 75.26 69.767C75.9694 69.7795 76.6738 69.6462 77.3295 69.3753C77.9853 69.1043 78.5783 68.7016 79.072 68.192C79.5531 67.7159 79.9333 67.1476 80.1896 66.5211C80.446 65.8946 80.5733 65.2228 80.564 64.546V59.817C80.564 58.698 80.689 57.952 81.973 57.952H82.346V57.538H77.456L77.451 66.41Z" fill="#fff"/><path id="Path 2" d="M89.646 63.63C89.3554 63.3526 89.0276 63.117 88.672 62.93C88.322 62.744 87.972 62.568 87.618 62.407C87.304 62.267 87.003 62.128 86.718 61.989C86.4557 61.8642 86.2078 61.711 85.979 61.532C85.7785 61.3729 85.6111 61.1763 85.486 60.953C85.3609 60.7118 85.2993 60.4426 85.307 60.171C85.2994 59.8603 85.3527 59.5512 85.464 59.261C85.5556 59.0292 85.6973 58.8206 85.879 58.65C86.0516 58.4923 86.2563 58.3739 86.479 58.303C86.7157 58.2278 86.9627 58.19 87.211 58.191C87.4569 58.1891 87.7012 58.23 87.933 58.312C88.1529 58.3927 88.3538 58.518 88.523 58.68C88.7098 58.8627 88.8613 59.0783 88.97 59.316C89.1044 59.6158 89.195 59.9334 89.239 60.259L89.263 60.42L89.425 60.401L89.869 60.349L90.018 60.332V60.181C90.018 60.139 90.018 60.008 90.009 59.789C90 59.57 89.995 59.327 89.983 59.057L89.974 58.845L89.948 58.26C89.9367 57.9933 89.925 57.787 89.913 57.641C89.9041 57.5594 89.8741 57.4815 89.826 57.415C89.7734 57.3392 89.6959 57.2844 89.607 57.26C89.2519 57.1568 88.8905 57.077 88.525 57.021C88.1706 56.9629 87.8122 56.9325 87.453 56.93C86.9612 56.9297 86.4713 56.9916 85.995 57.114C85.5234 57.2321 85.081 57.4455 84.695 57.741C84.2983 58.0535 83.9801 58.4545 83.766 58.912C83.5156 59.4757 83.3953 60.0885 83.414 60.705C83.3999 61.2184 83.4925 61.7292 83.686 62.205C83.8535 62.594 84.0934 62.9476 84.393 63.247C84.6827 63.5324 85.0105 63.7763 85.367 63.972C85.717 64.165 86.067 64.348 86.421 64.516C86.729 64.6627 87.0263 64.8057 87.313 64.945C87.5743 65.0695 87.8208 65.2228 88.048 65.402C88.249 65.5574 88.4186 65.7494 88.548 65.968C88.673 66.1991 88.7344 66.4593 88.726 66.722C88.7355 67.0463 88.6755 67.3688 88.55 67.668C88.4441 67.9096 88.2852 68.1242 88.085 68.296C87.8902 68.4595 87.6633 68.5804 87.419 68.651C87.1592 68.7271 86.8898 68.7655 86.619 68.765C86.328 68.767 86.0387 68.7221 85.762 68.632C85.5069 68.5482 85.2722 68.412 85.073 68.232C84.8611 68.0322 84.6911 67.7922 84.573 67.526C84.429 67.198 84.3411 66.8481 84.313 66.491L84.296 66.319L84.124 66.339L83.689 66.391L83.54 66.409V66.559C83.54 66.601 83.54 66.742 83.549 66.982C83.558 67.222 83.562 67.482 83.571 67.782C83.58 68.082 83.589 68.365 83.602 68.648C83.615 68.931 83.625 69.148 83.637 69.3C83.6461 69.3816 83.676 69.4594 83.724 69.526C83.7767 69.6025 83.8551 69.6575 83.945 69.681C84.3306 69.7865 84.7224 69.8683 85.118 69.926C85.5111 69.9831 85.9078 70.0119 86.305 70.012C86.6444 70.0115 86.9833 69.9864 87.319 69.937C87.6604 69.8877 87.9956 69.8022 88.319 69.682C88.6381 69.5623 88.9405 69.4023 89.219 69.206C89.5044 69.0026 89.7547 68.754 89.96 68.47C90.1816 68.1601 90.3505 67.8158 90.46 67.451C90.584 67.0194 90.6436 66.5719 90.637 66.123C90.6509 65.6212 90.5582 65.1223 90.365 64.659C90.1954 64.2786 89.9551 63.9339 89.657 63.643" fill="#fff"/><path id="Path 3" d="M96.602 57.133C96.502 56.822 96.302 56.775 96.188 56.775C96.139 56.775 96.062 56.775 95.958 56.785C95.854 56.795 95.746 56.803 95.627 56.818C95.508 56.833 95.389 56.848 95.264 56.865C95.139 56.882 95.021 56.903 94.924 56.924C94.8389 56.9354 94.761 56.978 94.7055 57.0436C94.6501 57.1092 94.621 57.1931 94.624 57.279C94.6258 57.3296 94.6328 57.3799 94.645 57.429L94.816 57.998L90.843 69.454C90.83 69.4885 90.8239 69.5252 90.825 69.562C90.8247 69.601 90.8327 69.6396 90.8486 69.6752C90.8644 69.7109 90.8877 69.7427 90.9169 69.7686C90.9461 69.7944 90.9805 69.8137 91.0178 69.8252C91.055 69.8367 91.0943 69.84 91.133 69.835C91.305 69.835 91.459 69.8317 91.595 69.825C91.731 69.8183 91.8547 69.8073 91.966 69.792C92.0357 69.7841 92.1014 69.7556 92.1549 69.7102C92.2083 69.6648 92.247 69.6045 92.266 69.537L93.571 65.305L97.13 65.237L98.512 69.561C98.5332 69.6405 98.5803 69.7106 98.6459 69.7603C98.7115 69.8099 98.7918 69.8362 98.874 69.835C98.922 69.835 98.999 69.835 99.106 69.83C99.213 69.825 99.331 69.82 99.459 69.809C99.587 69.798 99.716 69.784 99.85 69.766C99.984 69.748 100.107 69.729 100.215 69.706C100.304 69.694 100.386 69.6487 100.443 69.5792C100.5 69.5096 100.529 69.421 100.524 69.331C100.521 69.2746 100.51 69.219 100.49 69.166L96.602 57.133ZM93.952 64.08L95.337 59.615L96.759 64.08H93.952Z" fill="#fff"/><path id="Path 4" d="M106.526 57.133C106.426 56.822 106.226 56.775 106.112 56.775C106.063 56.775 105.986 56.775 105.882 56.785C105.778 56.795 105.67 56.803 105.551 56.818C105.432 56.833 105.313 56.848 105.187 56.865C105.061 56.882 104.944 56.903 104.847 56.924C104.762 56.9354 104.684 56.978 104.629 57.0436C104.573 57.1092 104.544 57.1931 104.547 57.279C104.549 57.3296 104.556 57.3799 104.568 57.429L104.739 57.998L100.767 69.454C100.754 69.4885 100.748 69.5252 100.749 69.562C100.749 69.601 100.757 69.6396 100.773 69.6752C100.788 69.7109 100.812 69.7427 100.841 69.7686C100.87 69.7944 100.904 69.8137 100.942 69.8252C100.979 69.8367 101.018 69.84 101.057 69.835C101.229 69.835 101.383 69.835 101.519 69.825C101.655 69.815 101.781 69.807 101.89 69.792C101.96 69.7841 102.025 69.7556 102.079 69.7102C102.132 69.6648 102.171 69.6045 102.19 69.537L103.495 65.305L107.054 65.237L108.436 69.561C108.457 69.6404 108.504 69.7105 108.569 69.7602C108.635 69.8098 108.715 69.8362 108.797 69.835C108.845 69.835 108.922 69.835 109.029 69.83C109.136 69.825 109.254 69.82 109.382 69.809C109.51 69.798 109.639 69.784 109.773 69.766C109.907 69.748 110.03 69.729 110.138 69.706C110.227 69.694 110.309 69.6487 110.366 69.5792C110.423 69.5096 110.452 69.421 110.447 69.331C110.444 69.2746 110.433 69.219 110.413 69.166L106.526 57.133ZM103.876 64.08L105.261 59.615L106.683 64.08H103.876Z" fill="#fff"/><path id="Path 5" d="M120.522 59.323C120.244 58.8763 119.89 58.4819 119.476 58.158C119.072 57.8463 118.624 57.5948 118.148 57.411C117.653 57.2198 117.138 57.0856 116.612 57.011C116.063 56.9327 115.509 56.8936 114.955 56.894C114.28 56.8941 113.605 56.9345 112.935 57.015C112.275 57.095 111.606 57.203 110.948 57.336L110.799 57.366L110.813 57.517L110.865 58.083L110.881 58.262L111.059 58.234C111.177 58.2153 111.296 58.2056 111.416 58.205C111.555 58.1974 111.693 58.2436 111.799 58.334C111.85 58.379 111.935 58.516 111.935 58.916V69.261C111.927 69.315 111.931 69.37 111.946 69.4223C111.962 69.4746 111.988 69.523 112.024 69.564C112.06 69.605 112.105 69.6377 112.155 69.6598C112.204 69.6819 112.258 69.6929 112.313 69.692C112.622 69.692 112.878 69.702 113.094 69.723C113.31 69.744 113.525 69.766 113.721 69.79C113.917 69.814 114.121 69.837 114.321 69.858C114.557 69.8813 114.794 69.8923 115.031 69.891C115.904 69.8988 116.771 69.7456 117.588 69.439C118.355 69.1487 119.051 68.6957 119.626 68.111C120.215 67.4988 120.669 66.7707 120.961 65.973C121.292 65.0516 121.454 64.0779 121.438 63.099C121.448 62.3754 121.367 61.6535 121.197 60.95C121.056 60.375 120.828 59.8252 120.519 59.32M119.028 65.599C118.864 66.2037 118.586 66.7713 118.208 67.271C117.859 67.7191 117.408 68.0776 116.893 68.317C116.329 68.5693 115.717 68.6943 115.1 68.683C114.87 68.6833 114.641 68.6713 114.412 68.647C114.237 68.6282 114.063 68.5975 113.892 68.555V58.445C113.892 58.217 113.97 58.188 113.992 58.179C114.169 58.127 114.354 58.1043 114.539 58.112H114.984C115.616 58.1006 116.243 58.229 116.82 58.488C117.346 58.7341 117.808 59.0982 118.171 59.552C118.556 60.0452 118.843 60.6077 119.016 61.209C119.219 61.9081 119.318 62.6332 119.31 63.361C119.319 64.1166 119.223 64.8698 119.025 65.599" fill="#fff"/><path id="Path 6" d="M33.286 54.575H40.156C40.9063 54.5504 41.6429 54.3673 42.3174 54.0376C42.9918 53.7078 43.5888 53.239 44.069 52.662C44.5539 53.2718 45.1783 53.756 45.8897 54.0738C46.601 54.3916 47.3783 54.5337 48.156 54.488C48.9223 54.4881 49.676 54.2925 50.3456 53.9198C51.0151 53.547 51.5784 53.0094 51.982 52.358C52.1257 52.7537 52.3566 53.112 52.6577 53.4063C52.9587 53.7005 53.3221 53.9233 53.721 54.058C54.4609 54.3871 55.2593 54.5646 56.069 54.58C56.9027 54.6006 57.7298 54.4266 58.4845 54.0718C59.2393 53.717 59.9009 53.1912 60.417 52.536C60.9712 53.3015 61.7225 53.9024 62.591 54.275C63.049 54.4552 63.5342 54.5567 64.026 54.575H67.678C68.4023 54.5837 69.1205 54.4412 69.7866 54.1568C70.4528 53.8723 71.0523 53.4521 71.547 52.923C72.626 51.7221 73.1886 50.1446 73.113 48.532V41.032V37.948L74.547 36.125L72.347 33.632L69.847 36.846V49.097C69.8339 50.3466 69.3725 51.5499 68.547 52.488C67.8407 53.1483 66.9047 53.5071 65.938 53.488H65.807C63.329 53.488 61.763 51.966 61.633 49.01V44.14C61.633 42.966 61.764 42.183 63.111 42.183H63.5V41.748H58.37V51.048C58.3696 51.3656 58.3061 51.68 58.1831 51.9728C58.06 52.2656 57.8799 52.531 57.6533 52.7535C57.4267 52.9761 57.158 53.1513 56.863 53.269C56.568 53.3866 56.2526 53.4444 55.935 53.439C55.3555 53.4408 54.7956 53.229 54.3624 52.8439C53.9292 52.4589 53.6532 51.9278 53.587 51.352V44.618C53.587 43.444 53.761 42.661 55.021 42.661H55.456V42.226H50.33V51.096C50.3186 51.7308 50.0642 52.337 49.6192 52.7898C49.1742 53.2427 48.5725 53.5076 47.938 53.53C47.6181 53.5307 47.3013 53.4682 47.0056 53.3461C46.71 53.224 46.4413 53.0448 46.2151 52.8186C45.9889 52.5925 45.8095 52.3239 45.6873 52.0283C45.5651 51.7327 45.5025 51.4159 45.503 51.096V45.096C45.503 43.922 45.764 43.139 47.111 43.139H47.5V42.702H42.33V49.093C42.3165 50.3425 41.8552 51.5457 41.03 52.484C40.0481 53.1525 38.8838 53.5017 37.696 53.484H32.1V44.27C32.1 43.097 32.317 42.314 33.578 42.314H34.013V41.879H28.837V53.488H16.593L4.071 40.702L0.463 44.357L0.763 44.657L1.063 44.357C1.933 43.444 2.629 43.836 3.455 44.657L12.368 53.483H7.637C4.898 53.483 2.637 54.099 1.446 55.566C0.884643 56.2544 0.399795 57.0018 0 57.795H2.846C3.0263 57.3828 3.24141 56.9867 3.489 56.611C3.99927 56.0003 4.63205 55.5036 5.3464 55.1528C6.06076 54.8021 6.84077 54.6053 7.636 54.575H33.286Z" fill="#fff"/><path id="Path 7" d="M20.218 55.929C19.8936 55.9246 19.5752 56.0171 19.3037 56.1947C19.0321 56.3722 18.8197 56.6267 18.6935 56.9256C18.5673 57.2245 18.5332 57.5543 18.5954 57.8727C18.6577 58.1911 18.8134 58.4837 19.0428 58.7131C19.2723 58.9425 19.5649 59.0983 19.8833 59.1605C20.2017 59.2228 20.5315 59.1886 20.8304 59.0625C21.1293 58.9363 21.3838 58.7239 21.5613 58.4523C21.7388 58.1807 21.8313 57.8624 21.827 57.538C21.8275 57.3265 21.7863 57.1171 21.7056 56.9216C21.6249 56.7262 21.5064 56.5486 21.3569 56.3991C21.2074 56.2496 21.0298 56.1311 20.8344 56.0504C20.6389 55.9697 20.4294 55.9285 20.218 55.929" fill="#fff"/><path id="scale_3" d="M24.262 55.929C23.8366 55.9395 23.4321 56.1159 23.1349 56.4206C22.8377 56.7252 22.6714 57.1339 22.6714 57.5595C22.6714 57.9851 22.8377 58.3938 23.1349 58.6984C23.4321 59.0031 23.8366 59.1795 24.262 59.19C24.4795 59.1954 24.6959 59.1572 24.8985 59.0777C25.101 58.9982 25.2856 58.8789 25.4413 58.727C25.5971 58.575 25.7208 58.3935 25.8053 58.193C25.8898 57.9925 25.9334 57.7771 25.9334 57.5595C25.9334 57.3419 25.8898 57.1265 25.8053 56.926C25.7208 56.7255 25.5971 56.544 25.4413 56.392C25.2856 56.2401 25.101 56.1208 24.8985 56.0413C24.6959 55.9618 24.4795 55.9236 24.262 55.929" fill="#fff"/><path id="scale_1" d="M52.026 35.662C52.3504 35.6664 52.6688 35.5738 52.9403 35.3963C53.2119 35.2188 53.4243 34.9643 53.5505 34.6654C53.6766 34.3665 53.7108 34.0367 53.6486 33.7183C53.5863 33.3999 53.4306 33.1073 53.2012 32.8779C52.9717 32.6484 52.6791 32.4927 52.3607 32.4304C52.0423 32.3682 51.7125 32.4023 51.4136 32.5285C51.1147 32.6547 50.8602 32.8671 50.6827 33.1387C50.5052 33.4103 50.4127 33.7286 50.417 34.053C50.4257 34.477 50.598 34.8812 50.8979 35.1811C51.1978 35.481 51.602 35.6533 52.026 35.662" fill="#fff"/><path id="scale_2" d="M52.461 37.748C52.4715 38.1734 52.6479 38.5779 52.9526 38.8751C53.2572 39.1723 53.6659 39.3386 54.0915 39.3386C54.5171 39.3386 54.9258 39.1723 55.2304 38.8751C55.535 38.5779 55.7115 38.1734 55.722 37.748C55.7274 37.5305 55.6892 37.3141 55.6097 37.1115C55.5302 36.909 55.4109 36.7244 55.259 36.5687C55.107 36.4129 54.9255 36.2892 54.725 36.2047C54.5245 36.1201 54.3091 36.0766 54.0915 36.0766C53.8739 36.0766 53.6585 36.1201 53.458 36.2047C53.2575 36.2892 53.076 36.4129 52.924 36.5687C52.7721 36.7244 52.6528 36.909 52.5733 37.1115C52.4938 37.3141 52.4556 37.5305 52.461 37.748" fill="#fff"/><path id="Path 11" d="M50.026 39.357C50.3504 39.3614 50.6688 39.2688 50.9403 39.0913C51.2119 38.9138 51.4243 38.6593 51.5505 38.3604C51.6766 38.0615 51.7108 37.7317 51.6486 37.4133C51.5863 37.0949 51.4306 36.8023 51.2011 36.5729C50.9717 36.3434 50.6791 36.1877 50.3607 36.1254C50.0423 36.0632 49.7125 36.0974 49.4136 36.2235C49.1147 36.3497 48.8602 36.5621 48.6827 36.8337C48.5052 37.1053 48.4127 37.4236 48.417 37.748C48.4165 37.9594 48.4577 38.1689 48.5384 38.3644C48.6191 38.5598 48.7376 38.7374 48.8871 38.8869C49.0366 39.0364 49.2142 39.1549 49.4096 39.2356C49.6051 39.3163 49.8146 39.3575 50.026 39.357" fill="#fff"/><path id="Path 12" d="M91.2 53.242C91.2593 52.9307 91.3137 52.6267 91.363 52.33C91.4123 52.0333 91.4537 51.771 91.487 51.543C91.5129 51.3965 91.5299 51.2486 91.538 51.1V50.97L91.407 50.937L90.915 50.812L90.758 50.772L90.704 50.919C90.542 51.3825 90.3482 51.8342 90.124 52.271C89.9927 52.5339 89.802 52.7626 89.567 52.939C89.3415 53.0873 89.0813 53.1744 88.812 53.192C88.482 53.222 88.056 53.237 87.545 53.237H86.571C86.4427 53.2394 86.3143 53.2324 86.187 53.216C86.1501 53.2152 86.1147 53.2013 86.087 53.177C86.0582 53.1303 86.0423 53.0768 86.041 53.022C86.032 52.927 86.027 52.789 86.027 52.611V41.32C86.036 41.2515 86.0299 41.1819 86.009 41.116C85.9881 41.0502 85.953 40.9897 85.9062 40.9389C85.8593 40.8882 85.8019 40.8483 85.7379 40.8223C85.6739 40.7962 85.605 40.7845 85.536 40.788C85.488 40.788 85.377 40.795 85.205 40.81C85.033 40.825 84.832 40.849 84.584 40.879C84.336 40.909 84.048 40.952 83.73 41.005C83.412 41.058 83.064 41.125 82.713 41.205L82.562 41.237L82.576 41.385L82.635 42.009L82.652 42.19L82.839 42.161C82.9713 42.1402 83.1051 42.1298 83.239 42.13C83.3284 42.1287 83.4174 42.1412 83.503 42.167C83.5682 42.1872 83.6267 42.2249 83.672 42.276C83.7305 42.3468 83.7716 42.4304 83.792 42.52C83.8285 42.6753 83.845 42.8346 83.841 42.994V54.089C83.8421 54.1804 83.8651 54.2703 83.908 54.351C83.9407 54.4129 83.9907 54.464 84.052 54.4979C84.1133 54.5319 84.1831 54.5472 84.253 54.542H85.886C86.9153 54.542 87.7953 54.5457 88.526 54.553C89.2567 54.5603 89.868 54.5683 90.36 54.577C90.5097 54.5813 90.6564 54.534 90.7753 54.443C90.8942 54.3519 90.9782 54.2227 91.013 54.077C91.076 53.837 91.136 53.562 91.195 53.25" fill="#fff"/><path id="Path 13" d="M92.994 47.549C93.3231 47.8591 93.6933 48.1225 94.094 48.332C94.494 48.541 94.894 48.74 95.283 48.921C95.631 49.0797 95.9667 49.2347 96.29 49.386C96.585 49.522 96.8643 49.6896 97.123 49.886C97.3478 50.0544 97.5388 50.2638 97.686 50.503C97.8269 50.7542 97.8961 51.0392 97.886 51.327C97.8963 51.6812 97.828 52.0333 97.686 52.358C97.5637 52.6234 97.3828 52.8576 97.157 53.043C96.9335 53.2227 96.6755 53.3548 96.399 53.431C96.1061 53.5133 95.8033 53.5551 95.499 53.555C95.1695 53.5572 94.8416 53.5083 94.527 53.41C94.2384 53.3184 93.9719 53.1683 93.744 52.969C93.5045 52.7536 93.3109 52.4921 93.175 52.2C93.0127 51.8445 92.9132 51.4635 92.881 51.074L92.864 50.902L92.685 50.923L92.193 50.979L92.038 50.997V51.147C92.038 51.193 92.0413 51.3457 92.048 51.605C92.0547 51.8643 92.063 52.1523 92.073 52.469C92.0823 52.7877 92.094 53.1007 92.108 53.408C92.122 53.7153 92.1353 53.9487 92.148 54.108C92.1597 54.1945 92.1942 54.2763 92.248 54.345C92.3069 54.4263 92.3926 54.484 92.49 54.508C92.9254 54.6221 93.3672 54.7103 93.813 54.772C94.2567 54.8339 94.7041 54.865 95.152 54.865C95.5341 54.8647 95.9157 54.8376 96.294 54.784C96.6768 54.7308 97.0531 54.6383 97.417 54.508C97.7747 54.3798 98.115 54.2075 98.43 53.995C98.7491 53.7771 99.0305 53.5086 99.263 53.2C99.5094 52.8674 99.6977 52.4955 99.82 52.1C99.9597 51.6344 100.027 51.1501 100.02 50.664C100.035 50.1209 99.9308 49.5811 99.714 49.083C99.5208 48.6682 99.2491 48.2947 98.914 47.983C98.5838 47.6806 98.2137 47.4249 97.814 47.223C97.421 47.023 97.02 46.832 96.624 46.657C96.27 46.505 95.9297 46.354 95.603 46.204C95.3067 46.0682 95.026 45.9006 94.766 45.704C94.5395 45.5327 94.3492 45.3182 94.206 45.073C94.0652 44.8106 93.9962 44.5156 94.006 44.218C93.9976 43.8789 94.0585 43.5417 94.185 43.227C94.2867 42.9773 94.4433 42.7536 94.6433 42.5727C94.8432 42.3918 95.0814 42.2583 95.34 42.182C95.6096 42.0996 95.8901 42.0581 96.172 42.059C96.4511 42.0565 96.7286 42.1008 96.993 42.19C97.2417 42.2765 97.4703 42.4126 97.665 42.59C97.8761 42.7876 98.0484 43.023 98.173 43.284C98.3236 43.6088 98.4247 43.9543 98.473 44.309L98.499 44.471L98.668 44.452L99.168 44.396L99.324 44.378V44.228C99.324 44.182 99.324 44.04 99.314 43.804C99.304 43.568 99.298 43.304 99.285 43.012L99.275 42.789L99.246 42.149C99.232 41.862 99.219 41.638 99.206 41.479C99.1944 41.3925 99.1599 41.3107 99.106 41.242C99.0476 41.1617 98.9631 41.1041 98.867 41.079C98.4662 40.9673 98.0587 40.8808 97.647 40.82C97.2473 40.757 96.8436 40.7236 96.439 40.72C95.8856 40.72 95.3342 40.7871 94.797 40.92C94.2699 41.0465 93.7733 41.2767 93.336 41.597C92.8932 41.9303 92.5351 42.3634 92.291 42.861C92.0084 43.4663 91.8714 44.1293 91.891 44.797C91.8755 45.3524 91.9798 45.9046 92.197 46.416C92.387 46.8385 92.6566 47.2205 92.991 47.541" fill="#fff"/><path id="Path 14" d="M111.363 54.542C111.475 54.5238 111.576 54.4638 111.645 54.3741C111.714 54.2845 111.747 54.1719 111.737 54.059V41.354C111.745 41.2962 111.74 41.2374 111.722 41.1817C111.705 41.126 111.676 41.0747 111.636 41.0316C111.597 40.9884 111.549 40.9544 111.495 40.9318C111.441 40.9092 111.383 40.8987 111.325 40.901C111.27 40.901 111.185 40.901 111.07 40.913L110.709 40.941C110.575 40.953 110.441 40.966 110.309 40.982C110.177 40.998 110.042 41.018 109.932 41.041C109.822 41.0624 109.723 41.1231 109.654 41.212C109.585 41.3008 109.55 41.4117 109.557 41.524V46.669H104.173V41.32C104.182 41.2515 104.176 41.1819 104.155 41.116C104.134 41.0502 104.099 40.9897 104.052 40.9389C104.005 40.8882 103.948 40.8483 103.884 40.8223C103.82 40.7962 103.751 40.7845 103.682 40.788C103.634 40.788 103.523 40.795 103.351 40.81C103.179 40.825 102.978 40.849 102.73 40.879C102.482 40.909 102.194 40.952 101.876 41.005C101.558 41.058 101.209 41.125 100.859 41.2L100.708 41.233L100.722 41.381L100.781 42.005L100.798 42.186L100.985 42.157C101.117 42.1358 101.251 42.1251 101.385 42.125C101.474 42.1236 101.563 42.1361 101.649 42.162C101.714 42.182 101.773 42.2197 101.818 42.271C101.877 42.3415 101.918 42.4247 101.938 42.514C101.974 42.6693 101.991 42.8286 101.987 42.988V54.23C101.979 54.2879 101.984 54.3468 102.002 54.4026C102.019 54.4584 102.048 54.5097 102.088 54.5528C102.127 54.596 102.176 54.63 102.229 54.6525C102.283 54.675 102.342 54.6854 102.4 54.683C102.454 54.683 102.536 54.681 102.647 54.677C102.759 54.677 102.88 54.666 103.012 54.654C103.144 54.642 103.276 54.627 103.412 54.608C103.548 54.589 103.678 54.567 103.794 54.543C103.906 54.5248 104.007 54.4648 104.076 54.3751C104.145 54.2855 104.178 54.1729 104.168 54.06V48.004L109.552 47.93V54.23C109.544 54.2879 109.549 54.3468 109.567 54.4026C109.584 54.4584 109.613 54.5097 109.653 54.5528C109.692 54.596 109.741 54.63 109.794 54.6525C109.848 54.675 109.907 54.6854 109.965 54.683C110.019 54.683 110.101 54.683 110.213 54.677C110.325 54.671 110.445 54.666 110.577 54.654C110.709 54.642 110.841 54.627 110.977 54.608C111.113 54.589 111.243 54.567 111.359 54.543" fill="#fff"/><path id="Path 15" d="M121.877 50.866L121.72 50.826L121.666 50.973C121.505 51.4342 121.312 51.8839 121.09 52.319C120.965 52.5751 120.777 52.7955 120.544 52.96C120.316 53.099 120.057 53.1794 119.79 53.194C119.468 53.22 119.043 53.233 118.526 53.233H117.257C117.129 53.2354 117 53.2284 116.873 53.212C116.836 53.2111 116.801 53.1973 116.773 53.173C116.744 53.1264 116.728 53.0729 116.727 53.018C116.717 52.923 116.713 52.785 116.713 52.607V48.253L120.563 48.405L120.728 48.411L120.746 48.254C120.766 48.0787 120.782 47.9143 120.795 47.761C120.809 47.607 120.815 47.453 120.815 47.304C120.815 46.831 120.469 46.794 120.363 46.794C120.316 46.794 120.187 46.799 119.979 46.812L119.461 46.841L119.178 46.857L118.006 46.925L116.713 47V42.58C116.713 42.48 116.713 42.41 116.713 42.356C116.713 42.3441 116.715 42.3322 116.719 42.321C116.778 42.321 116.854 42.321 116.955 42.321H118.687C119.112 42.321 119.461 42.334 119.727 42.36C119.937 42.372 120.139 42.4438 120.309 42.567C120.486 42.721 120.618 42.9196 120.692 43.142C120.834 43.5404 120.945 43.9494 121.023 44.365L121.055 44.518L121.216 44.5L121.708 44.443L121.863 44.425V44.275C121.863 44.244 121.863 44.163 121.863 44.032C121.863 43.901 121.855 43.746 121.848 43.564C121.841 43.382 121.833 43.185 121.823 42.972C121.813 42.759 121.805 42.553 121.798 42.35C121.791 42.147 121.784 41.95 121.773 41.778L121.748 41.357C121.747 41.3121 121.736 41.268 121.718 41.2271C121.699 41.1862 121.673 41.1494 121.64 41.1187C121.607 41.088 121.569 41.0642 121.527 41.0484C121.485 41.0327 121.44 41.0254 121.395 41.027V41.027C121.101 41.035 120.832 41.04 120.595 41.044C120.358 41.048 120.121 41.05 119.895 41.05H116.314C116.098 41.054 115.882 41.0697 115.668 41.097C115.401 41.1277 115.123 41.1657 114.834 41.211C114.545 41.2563 114.27 41.302 114.01 41.348C113.743 41.394 113.54 41.4323 113.401 41.463L113.252 41.496L113.266 41.643L113.325 42.267L113.342 42.447L113.528 42.419C113.66 42.3983 113.794 42.3876 113.928 42.387C114.09 42.3807 114.248 42.4329 114.374 42.534C114.449 42.596 114.539 42.758 114.539 43.172V54.088C114.54 54.1791 114.563 54.2686 114.606 54.349C114.639 54.411 114.689 54.462 114.75 54.496C114.811 54.5299 114.881 54.5452 114.951 54.54H116.584C117.095 54.54 117.585 54.542 118.054 54.546L119.372 54.558H119.672L120.487 54.566C120.82 54.57 121.11 54.572 121.355 54.572C121.504 54.5758 121.65 54.5283 121.769 54.4372C121.887 54.3462 121.97 54.2173 122.005 54.072C122.068 53.833 122.128 53.562 122.187 53.258C122.246 52.954 122.299 52.658 122.346 52.358C122.393 52.058 122.43 51.809 122.46 51.588C122.483 51.4453 122.499 51.3014 122.506 51.157V51.027L122.375 50.994L121.877 50.866Z" fill="#fff"/><path id="Path 16" d="M125.812 40.788C125.764 40.788 125.653 40.795 125.481 40.81C125.309 40.825 125.108 40.849 124.86 40.879C124.612 40.909 124.324 40.952 124.006 41.005C123.688 41.058 123.34 41.125 122.989 41.205L122.838 41.237L122.852 41.385L122.911 42.009L122.928 42.19L123.115 42.161C123.247 42.1404 123.381 42.13 123.515 42.13C123.604 42.1288 123.693 42.1413 123.779 42.167C123.844 42.1871 123.903 42.2248 123.948 42.276C124.007 42.3468 124.048 42.4304 124.068 42.52C124.105 42.6752 124.121 42.8345 124.117 42.994V54.236C124.109 54.2939 124.114 54.3528 124.132 54.4086C124.149 54.4644 124.178 54.5157 124.218 54.5588C124.257 54.602 124.306 54.636 124.359 54.6585C124.413 54.681 124.472 54.6914 124.53 54.689C124.584 54.689 124.667 54.689 124.777 54.683C124.887 54.677 125.01 54.672 125.141 54.66C125.272 54.648 125.405 54.633 125.541 54.613C125.677 54.593 125.807 54.572 125.923 54.548C126.035 54.5297 126.136 54.4698 126.205 54.3801C126.274 54.2905 126.307 54.1779 126.297 54.065V41.32C126.306 41.2515 126.3 41.1819 126.279 41.116C126.258 41.0502 126.223 40.9897 126.176 40.9389C126.129 40.8882 126.072 40.8483 126.008 40.8223C125.944 40.7962 125.875 40.7845 125.806 40.788" fill="#fff"/><path id="Path 17" d="M133.202 46.75L137.991 41.55C138.057 41.4755 138.092 41.3793 138.091 41.28C138.091 41.1911 138.061 41.1047 138.006 41.035C137.97 40.9914 137.924 40.9569 137.871 40.9345C137.819 40.9121 137.763 40.9023 137.706 40.906C137.645 40.906 137.559 40.906 137.449 40.912C137.339 40.918 137.219 40.921 137.09 40.929C136.961 40.937 136.825 40.95 136.695 40.97C136.575 40.9872 136.457 41.0139 136.342 41.05C136.127 41.1211 135.94 41.2565 135.805 41.438L131.281 46.903V41.324C131.29 41.2555 131.284 41.1859 131.263 41.12C131.242 41.0542 131.207 40.9937 131.16 40.9429C131.113 40.8922 131.056 40.8523 130.992 40.8262C130.928 40.8002 130.859 40.7885 130.79 40.792C130.742 40.792 130.631 40.799 130.459 40.814C130.287 40.829 130.086 40.853 129.838 40.883C129.59 40.913 129.302 40.956 128.984 41.009C128.666 41.062 128.318 41.129 127.967 41.209L127.816 41.241L127.83 41.389L127.889 42.013L127.906 42.194L128.093 42.165C128.225 42.1444 128.359 42.134 128.493 42.134C128.582 42.1328 128.671 42.1453 128.757 42.171C128.822 42.1911 128.881 42.2288 128.926 42.28C128.985 42.3508 129.026 42.4344 129.046 42.524C129.083 42.6792 129.099 42.8385 129.095 42.998V54.24C129.087 54.2978 129.092 54.3566 129.11 54.4123C129.127 54.468 129.156 54.5193 129.196 54.5624C129.235 54.6056 129.283 54.6396 129.337 54.6622C129.391 54.6848 129.449 54.6953 129.507 54.693C129.561 54.693 129.644 54.693 129.754 54.687C129.864 54.681 129.987 54.676 130.119 54.664C130.251 54.652 130.383 54.637 130.519 54.617C130.655 54.597 130.785 54.576 130.901 54.552C131.013 54.5337 131.114 54.4738 131.183 54.3841C131.252 54.2945 131.285 54.1819 131.275 54.069V47.956L135.823 54.415C135.876 54.5023 135.951 54.574 136.04 54.6228C136.13 54.6717 136.231 54.6959 136.333 54.693C136.38 54.693 136.475 54.693 136.618 54.687C136.761 54.681 136.918 54.676 137.098 54.664C137.278 54.652 137.45 54.637 137.627 54.618C137.804 54.599 137.96 54.576 138.073 54.552C138.165 54.5312 138.248 54.4839 138.313 54.416C138.378 54.3469 138.414 54.2551 138.413 54.16C138.407 54.0887 138.383 54.02 138.344 53.96L133.202 46.75Z" fill="#fff"/><path id="Path 18" d="M149.282 37.6C149.227 37.6 149.142 37.6 149.027 37.612L148.666 37.64C148.532 37.652 148.399 37.665 148.266 37.681C148.133 37.697 147.999 37.717 147.889 37.74C147.778 37.7604 147.679 37.8209 147.609 37.91C147.54 37.999 147.506 38.1105 147.514 38.223V46.668H142.13V41.32C142.139 41.2515 142.133 41.1819 142.112 41.116C142.091 41.0502 142.056 40.9897 142.009 40.9389C141.962 40.8882 141.905 40.8483 141.841 40.8223C141.777 40.7962 141.708 40.7845 141.639 40.788C141.591 40.788 141.48 40.795 141.308 40.81C141.136 40.825 140.935 40.849 140.687 40.88C140.439 40.911 140.151 40.952 139.833 41.005C139.515 41.058 139.167 41.125 138.816 41.205L138.665 41.237L138.679 41.385L138.738 42.009L138.755 42.19L138.942 42.161C139.074 42.1404 139.208 42.13 139.342 42.13C139.431 42.1288 139.52 42.1413 139.606 42.167C139.671 42.1872 139.73 42.2249 139.775 42.276C139.833 42.3469 139.875 42.4304 139.895 42.52C139.931 42.6739 139.948 42.8319 139.945 42.99V54.232C139.937 54.2898 139.942 54.3486 139.96 54.4043C139.977 54.46 140.006 54.5113 140.046 54.5544C140.085 54.5976 140.133 54.6317 140.187 54.6542C140.241 54.6768 140.299 54.6873 140.357 54.685C140.411 54.685 140.494 54.685 140.604 54.679C140.714 54.673 140.837 54.668 140.969 54.656C141.101 54.644 141.233 54.629 141.369 54.609C141.505 54.589 141.635 54.568 141.751 54.544C141.863 54.5258 141.964 54.4658 142.033 54.3761C142.102 54.2865 142.135 54.1739 142.125 54.061V48.005L147.509 47.931V57.044C147.501 57.1019 147.506 57.1608 147.524 57.2166C147.541 57.2724 147.57 57.3237 147.61 57.3668C147.649 57.41 147.698 57.444 147.751 57.4665C147.805 57.489 147.864 57.4994 147.922 57.497C147.976 57.497 148.058 57.497 148.17 57.491C148.282 57.485 148.402 57.48 148.534 57.468C148.666 57.456 148.798 57.441 148.934 57.421C149.07 57.401 149.2 57.38 149.315 57.356C149.427 57.3377 149.528 57.2778 149.597 57.1881C149.667 57.0985 149.699 56.9859 149.689 56.873V38.053C149.697 37.9952 149.692 37.9364 149.674 37.8807C149.657 37.825 149.628 37.7737 149.589 37.7306C149.549 37.6874 149.501 37.6534 149.447 37.6308C149.393 37.6082 149.335 37.5977 149.277 37.6" fill="#fff"/><path id="Rectangle 1" d="M76.225 42.572H73.87V45.35H76.225V42.572Z" fill="#fff"/><path id="Path 19" d="M5.724 39.357C5.94152 39.3624 6.15792 39.3242 6.36045 39.2447C6.56298 39.1652 6.74756 39.0459 6.90331 38.894C7.05906 38.742 7.18283 38.5605 7.26734 38.36C7.35185 38.1595 7.39538 37.9441 7.39538 37.7265C7.39538 37.5089 7.35185 37.2935 7.26734 37.093C7.18283 36.8925 7.05906 36.7109 6.90331 36.559C6.74756 36.4071 6.56298 36.2878 6.36045 36.2083C6.15792 36.1288 5.94152 36.0906 5.724 36.096C5.29856 36.1065 4.89408 36.2829 4.5969 36.5876C4.29973 36.8922 4.13338 37.3009 4.13338 37.7265C4.13338 38.1521 4.29973 38.5608 4.5969 38.8654C4.89408 39.17 5.29856 39.3465 5.724 39.357" fill="#fff"/><path id="Path 20" d="M75.936 29.864L78.276 32.521L82.491 27.508V19H68V27.445L77.141 37.808V54.788H80.4V36.235L71.259 25.864V22.264H79.227V25.895L75.936 29.864Z" fill="#fff"/><path id="Path 21" d="M73.456 15.518V17.758H76.717V15.522L73.456 15.518Z" fill="#fff"/><path id="transslate" style="transform-box: fill-box; animation: translateX 2s linear infinite; transform-origin: center;" d="M84.698 12.514C82.6016 9.02394 81.2721 5.12759 80.798 1.084L80.691 0H69.483L69.373 1.084C68.8989 5.12759 67.5694 9.02394 65.473 12.514L64.331 14.489H85.837L84.698 12.514Z" fill="#fff"/></g></g><defs><clipPath id="clip0_240_2"><rect width="149.694" height="70" fill="white"/></clipPath></defs><style> @keyframes translateX { 0%, 100% { transform: translateX(2px); } 50% { transform: translateX(-2px); } }</style></svg>