<svg xmlns="http://www.w3.org/2000/svg" width="90" height="90" viewBox="0 0 90 90">
  <g id="cancel" transform="translate(-677 -280)">
    <g id="close-circle_bulk" data-name="close-circle/bulk" transform="translate(677 280)">
      <g id="vuesax_bulk_close-circle" data-name="vuesax/bulk/close-circle">
        <g id="close-circle">
          <path id="Vector" d="M75,37.5A37.5,37.5,0,1,1,37.5,0,37.5,37.5,0,0,1,75,37.5Z" transform="translate(7.5 7.5)" fill="#c57c35" opacity="0.4"/>
          <path id="Vector-2" data-name="Vector" d="M17.391,13.416l8.625-8.625A2.811,2.811,0,0,0,22.041.816L13.416,9.441,4.791.816A2.811,2.811,0,0,0,.816,4.791l8.625,8.625L.816,22.041a2.829,2.829,0,0,0,0,3.975,2.807,2.807,0,0,0,3.975,0l8.625-8.625,8.625,8.625a2.807,2.807,0,0,0,3.975,0,2.829,2.829,0,0,0,0-3.975Z" transform="translate(31.584 31.584)" fill="#c57c35"/>
          <path id="Vector-3" data-name="Vector" d="M0,0H90V90H0Z" fill="none" opacity="0"/>
        </g>
      </g>
    </g>
  </g>
</svg>
