<svg xmlns="http://www.w3.org/2000/svg" width="24" height="24" viewBox="0 0 24 24">
  <g id="date" transform="translate(-3.961 2)">
    <g id="calendar-add_bulk" data-name="calendar-add/bulk" transform="translate(3.961 -2)">
      <g id="vuesax_bulk_calendar-add" data-name="vuesax/bulk/calendar-add">
        <g id="calendar-add">
          <path id="Vector" d="M0,0H24V24H0Z" fill="none" opacity="0"/>
          <path id="Vector-2" data-name="Vector" d="M13.711,2.31V.75a.75.75,0,0,0-1.5,0v1.5h-6.5V.75a.75.75,0,0,0-1.5,0V2.31A4.248,4.248,0,0,0,0,6.56a.5.5,0,0,0,.5.53h16.92a.5.5,0,0,0,.5-.53A4.248,4.248,0,0,0,13.711,2.31Z" transform="translate(3.039 1.25)" fill="#c57c35"/>
          <path id="Vector-3" data-name="Vector" d="M18,1.01V2.75a.985.985,0,0,1-1.14.98A6.108,6.108,0,0,0,16,3.66a5.51,5.51,0,0,0-5.5,5.5,6.176,6.176,0,0,0,.37,1.68,1,1,0,0,1-.95,1.32H5c-3.5,0-5-2-5-5V1A1,1,0,0,1,1,0H17A1.018,1.018,0,0,1,18,1.01Z" transform="translate(3 9.83)" fill="#c57c35" opacity="0.4"/>
          <path id="Vector-4" data-name="Vector" d="M1,2a1.052,1.052,0,0,1-.71-.29A1.052,1.052,0,0,1,0,1,1.052,1.052,0,0,1,.29.291,1.009,1.009,0,0,1,1.2.021a.636.636,0,0,1,.18.06.757.757,0,0,1,.18.09l.15.12A1.052,1.052,0,0,1,2,1a1.052,1.052,0,0,1-.29.71l-.15.12a.757.757,0,0,1-.18.09.636.636,0,0,1-.18.06A1.5,1.5,0,0,1,1,2Z" transform="translate(7.5 12.999)" fill="#c57c35"/>
          <path id="Vector-5" data-name="Vector" d="M1,1.987A1.052,1.052,0,0,1,.29,1.7,1.052,1.052,0,0,1,0,.987,1.052,1.052,0,0,1,.29.278a1.047,1.047,0,0,1,1.42,0A1.052,1.052,0,0,1,2,.987a1.052,1.052,0,0,1-.29.71A1.052,1.052,0,0,1,1,1.987Z" transform="translate(11 13.013)" fill="#c57c35"/>
          <path id="Vector-6" data-name="Vector" d="M1,2a1.052,1.052,0,0,1-.71-.29A1.052,1.052,0,0,1,0,1,1.052,1.052,0,0,1,.29.289,1.032,1.032,0,0,1,.62.079a1,1,0,0,1,1.09.21A1.052,1.052,0,0,1,2,1a1.052,1.052,0,0,1-.29.71A1.052,1.052,0,0,1,1,2Z" transform="translate(7.5 16.501)" fill="#c57c35"/>
          <path id="Vector-7" data-name="Vector" d="M6.83,1.17a4,4,0,1,0,0,5.66A4.008,4.008,0,0,0,6.83,1.17ZM6.07,4.56a.716.716,0,0,1-.53.22H4.8v.78a.751.751,0,0,1-.75.75.755.755,0,0,1-.75-.75V4.78H2.55a.75.75,0,1,1,0-1.5H3.3V2.57a.75.75,0,1,1,1.5,0v.71h.74a.749.749,0,0,1,.75.75A.716.716,0,0,1,6.07,4.56Z" transform="translate(15 15)" fill="#c57c35"/>
        </g>
      </g>
    </g>
  </g>
</svg>
