<svg width="90" height="90" viewBox="0 0 90 90" fill="none" xmlns="http://www.w3.org/2000/svg"><g id="rate"><g id="magic-star/bulk"><g id="vuesax/bulk/magic-star"><g id="magic-star"><g id="rotate" style="transform-origin: center; transform-box: fill-box; animation: spin 3s linear infinite;"><path id="Vector" d="M64.838 15.525L64.58 29.737C64.6177 30.8284 64.8843 31.8997 65.3623 32.8816C65.8403 33.8635 66.5192 34.7341 67.355 35.437L76.655 42.487C82.618 46.987 81.642 52.5 74.517 54.75L62.4 58.537C61.2997 58.9506 60.3068 59.607 59.4953 60.4575C58.6838 61.3079 58.0746 62.3305 57.713 63.449L54.825 74.475C52.538 83.175 46.837 84.037 42.112 76.387L35.512 65.7C34.8034 64.6851 33.8612 63.8555 32.7647 63.2812C31.6682 62.7069 30.4498 62.4046 29.212 62.4L16.687 63.037C7.72501 63.487 5.18001 58.311 11.025 51.487L18.45 42.862C19.1658 41.9314 19.6622 40.8513 19.9024 39.7021C20.1426 38.5529 20.1202 37.3643 19.837 36.225L16.05 24.111C13.838 16.987 17.813 13.05 24.9 15.375L35.963 19.011C37.0171 19.2942 38.1187 19.3537 39.1971 19.1858C40.2756 19.0179 41.3069 18.6262 42.225 18.036L53.78 9.71099C60 5.21099 64.988 7.83699 64.838 15.525Z" fill="#C57C35"/></g><path style="transform-origin: center; transform-box: fill-box; animation: sideClip_2 2s linear infinite alternate-reverse;" id="Vector_2" opacity="0.4" d="M80.4 76.762L69.038 65.4C68.5085 64.8844 67.7973 64.5982 67.0583 64.6031C66.3193 64.608 65.6119 64.9038 65.0894 65.4264C64.5668 65.9489 64.271 66.6563 64.2661 67.3953C64.2612 68.1343 64.5475 68.8455 65.063 69.375L76.425 80.737C76.6858 80.9984 76.9955 81.2059 77.3366 81.3474C77.6776 81.4889 78.0433 81.5618 78.4125 81.5618C78.7818 81.5618 79.1474 81.4889 79.4884 81.3474C79.8295 81.2059 80.1393 80.9984 80.4 80.737C80.9227 80.2075 81.2158 79.4935 81.2158 78.7495C81.2158 78.0055 80.9227 77.2914 80.4 76.762V76.762Z" fill="#C57C35"/></g></g></g></g><style> @keyframes spin { 0% { transform: rotate(0deg); } 100% { transform: rotate(360deg); } } @keyframes sideClip_2 { 0% { clip-path: polygon(100% 0, 100% 0, 100% 100%, 100% 100%); } 50% { clip-path: polygon(100% 0, 48% 0, 48% 100%, 100% 100%); } 100% { clip-path: polygon(100% 0, 0 0, 0 100%, 100% 100%); }}</style></svg>