<svg id="star" xmlns="http://www.w3.org/2000/svg" width="40" height="40" viewBox="0 0 40 40">
  <rect id="Rectangle_436" data-name="Rectangle 436" width="40" height="40" transform="translate(0)" fill="none"/>
  <g id="Group_4373" data-name="Group 4373" transform="translate(0.72 1.711)">
    <g id="Iconly_Bold_Star" data-name="Iconly/Bold/Star">
      <g id="Star-2" data-name="Star">
        <path id="Star-3" data-name="Star" d="M30.693,22.79a2.122,2.122,0,0,0-.615,1.87l1.714,9.486a2.082,2.082,0,0,1-.868,2.082,2.123,2.123,0,0,1-2.256.154l-8.54-4.454a2.18,2.18,0,0,0-.964-.253h-.523a1.565,1.565,0,0,0-.521.174L9.581,36.326a2.253,2.253,0,0,1-1.369.212A2.143,2.143,0,0,1,6.5,34.087L8.212,24.6A2.158,2.158,0,0,0,7.6,22.713L.634,15.965a2.081,2.081,0,0,1-.519-2.179A2.165,2.165,0,0,1,1.83,12.34l9.583-1.39a2.144,2.144,0,0,0,1.7-1.174l4.223-8.657A2.007,2.007,0,0,1,17.717.6l.174-.135A1.294,1.294,0,0,1,18.2.212l.21-.077L18.739,0h.812a2.157,2.157,0,0,1,1.7,1.157l4.278,8.619a2.143,2.143,0,0,0,1.6,1.174l9.583,1.39a2.186,2.186,0,0,1,1.755,1.446,2.094,2.094,0,0,1-.559,2.179Z"/>
      </g>
    </g>
  </g>
</svg>
