<svg xmlns="http://www.w3.org/2000/svg" width="24" height="24" viewBox="0 0 24 24">
  <g id="address" transform="translate(-185 -163)">
    <g id="map_bulk" data-name="map/bulk" transform="translate(185 163)">
      <g id="vuesax_bulk_map" data-name="vuesax/bulk/map">
        <g id="map">
          <path id="Vector" d="M0,0H24V24H0Z" fill="none" opacity="0"/>
          <path id="Vector-2" data-name="Vector" d="M12.78,5.88A6.109,6.109,0,0,1,9.09,6.94H.71A5.529,5.529,0,0,1,0,6.9L6.9,0Z" transform="translate(7.1 15.06)" fill="#bd781e" opacity="0.4"/>
          <path id="Vector-3" data-name="Vector" d="M6.94.71V9.09a6.109,6.109,0,0,1-1.06,3.69L0,6.9,6.9,0A5.529,5.529,0,0,1,6.94.71Z" transform="translate(15.06 7.1)" fill="#bd781e" opacity="0.4"/>
          <path id="Vector-4" data-name="Vector" d="M13.06,12l5.88,5.88a4.109,4.109,0,0,1-1.06,1.06L12,13.06l-6.9,6.9a5.976,5.976,0,0,1-1.75-.37C1.21,18.81,0,16.91,0,14.19V5.81C0,2.17,2.17,0,5.81,0h8.38c2.72,0,4.62,1.21,5.4,3.35a5.976,5.976,0,0,1,.37,1.75Z" transform="translate(2 2)" fill="#bd781e" opacity="0.4"/>
          <path id="Vector-5" data-name="Vector" d="M9.71,8.65l5.88,5.88a4.109,4.109,0,0,1-1.06,1.06L8.65,9.71l-6.9,6.9A5.976,5.976,0,0,1,0,16.24l.39-.39L16.24,0a5.976,5.976,0,0,1,.37,1.75Z" transform="translate(5.35 5.35)" fill="#bd781e"/>
          <path id="Vector-6" data-name="Vector" d="M6.331,2.4A3.134,3.134,0,0,0,3.211,0,3.114,3.114,0,0,0,.091,2.39,4.663,4.663,0,0,0,1.8,6.71a2.022,2.022,0,0,0,1.41.56,2.067,2.067,0,0,0,1.41-.56A4.654,4.654,0,0,0,6.331,2.4ZM3.241,3.96a1,1,0,0,1,0-2h.01a1,1,0,1,1-.01,2Z" transform="translate(5.909 5.53)" fill="#bd781e"/>
        </g>
      </g>
    </g>
  </g>
</svg>
