<svg xmlns="http://www.w3.org/2000/svg" width="24" height="24" viewBox="0 0 24 24">
  <g id="cart" transform="translate(-355 -137)">
    <g id="shopping-bag_bulk" data-name="shopping-bag/bulk" transform="translate(355 137)">
      <g id="vuesax_bulk_shopping-bag" data-name="vuesax/bulk/shopping-bag">
        <g id="shopping-bag">
          <path id="Vector" d="M0,0H24V24H0Z" fill="none" opacity="0"/>
          <path id="Vector-2" data-name="Vector" d="M13.016,15.5H4.036c-3.51,0-4.27-2.01-3.98-4.47l.9-7.5C1.186,1.59,1.526,0,4.926,0h7.2c3.4,0,3.74,1.59,3.97,3.53l.75,6.25L17,11.03l.03.24C17.236,13.62,16.416,15.5,13.016,15.5Z" transform="translate(3.474 6.5)" opacity="0.4"/>
          <g id="Group">
            <path id="Vector-3" data-name="Vector" d="M8.75,7.5A.755.755,0,0,1,8,6.75V3.25A1.623,1.623,0,0,0,6.25,1.5h-3A1.623,1.623,0,0,0,1.5,3.25v3.5a.755.755,0,0,1-.75.75A.755.755,0,0,1,0,6.75V3.25A3.113,3.113,0,0,1,3.25,0h3A3.113,3.113,0,0,1,9.5,3.25v3.5A.755.755,0,0,1,8.75,7.5Z" transform="translate(7.25 1.25)"/>
          </g>
          <path id="Vector-4" data-name="Vector" d="M13.25,1.49a.277.277,0,0,1-.09.01H.75A.75.75,0,0,1,.75,0H13.07l.15,1.25Z" transform="translate(7.25 16.28)"/>
        </g>
      </g>
    </g>
  </g>
</svg>
