<svg xmlns="http://www.w3.org/2000/svg" width="24" height="24" viewBox="0 0 24 24">
  <g id="category" transform="translate(-1143 -145)">
    <g id="element-plus_bulk" data-name="element-plus/bulk" transform="translate(1143 145)">
      <g id="vuesax_bulk_element-plus" data-name="vuesax/bulk/element-plus">
        <g id="element-plus">
          <path id="Vector" d="M6.75,3H4.5V.75A.75.75,0,0,0,3,.75V3H.75a.75.75,0,0,0,0,1.5H3V6.75a.75.75,0,0,0,1.5,0V4.5H6.75a.75.75,0,0,0,0-1.5Z" transform="translate(13.75 13.75)"/>
          <path id="Vector-2" data-name="Vector" d="M8.5,6.52V1.98C8.5.57,7.86,0,6.27,0H2.23C.64,0,0,.57,0,1.98V6.51C0,7.93.64,8.49,2.23,8.49H6.27C7.86,8.5,8.5,7.93,8.5,6.52Z" transform="translate(13.5 2)" opacity="0.4"/>
          <path id="Vector-3" data-name="Vector" d="M8.5,6.52V1.98C8.5.57,7.86,0,6.27,0H2.23C.64,0,0,.57,0,1.98V6.51C0,7.93.64,8.49,2.23,8.49H6.27C7.86,8.5,8.5,7.93,8.5,6.52Z" transform="translate(2 2)"/>
          <path id="Vector-4" data-name="Vector" d="M8.5,6.27V2.23C8.5.64,7.86,0,6.27,0H2.23C.64,0,0,.64,0,2.23V6.27C0,7.86.64,8.5,2.23,8.5H6.27C7.86,8.5,8.5,7.86,8.5,6.27Z" transform="translate(2 13.5)" opacity="0.4"/>
          <path id="Vector-5" data-name="Vector" d="M0,0H24V24H0Z" fill="none" opacity="0"/>
        </g>
      </g>
    </g>
  </g>
</svg>
