<svg xmlns="http://www.w3.org/2000/svg" width="24" height="24" viewBox="0 0 24 24">
  <g id="favorite" transform="translate(-228 -204)">
    <g id="heart_bulk" data-name="heart/bulk" transform="translate(228 204)">
      <g id="vuesax_bulk_heart" data-name="vuesax/bulk/heart">
        <g id="heart">
          <path id="Vector" d="M20,5.59a10.678,10.678,0,0,1-.52,3.31H.52A10.678,10.678,0,0,1,0,5.59,5.552,5.552,0,0,1,10,2.23,5.552,5.552,0,0,1,20,5.59Z" transform="translate(2 3.1)" fill="#bd781e"/>
          <path id="Vector-2" data-name="Vector" d="M18.96,0c-1.58,5-6.45,7.99-8.86,8.81a2.181,2.181,0,0,1-1.24,0C6.45,7.99,1.58,5,0,0Z" transform="translate(2.52 12)" fill="#bd781e" opacity="0.4"/>
          <path id="Vector-3" data-name="Vector" d="M0,0H24V24H0Z" fill="none" opacity="0"/>
        </g>
      </g>
    </g>
  </g>
</svg>
