<svg xmlns="http://www.w3.org/2000/svg" width="24" height="24" viewBox="0 0 24 24">
  <g id="google" transform="translate(0.144)">
    <rect id="Rectangle_42" data-name="Rectangle 42" width="24" height="24" transform="translate(-0.144)" fill="#fff" opacity="0.1"/>
    <g id="Group_4455" data-name="Group 4455" transform="translate(14.887 21.887)">
      <g id="google_bold" data-name="google/bold" transform="translate(-10.145 -17)">
        <g id="vuesax_bold_google" data-name="vuesax/bold/google">
          <g id="google-2" data-name="google">
            <path id="BG_124" data-name="BG 124" d="M0,0H14.227V14.227H0Z" fill="none" opacity="0.58"/>
            <path id="Vector" d="M11.583,5.376A.586.586,0,0,0,11,4.849H6.521a.6.6,0,0,0-.593.593V6.455a.6.6,0,0,0,.593.593H9.194A2.891,2.891,0,0,1,7.985,8.969a3.516,3.516,0,0,1-2.057.593.794.794,0,0,1-.119-.006A3.566,3.566,0,0,1,2.555,7.1a3.693,3.693,0,0,1-.2-1.174,3.833,3.833,0,0,1,.19-1.174q.053-.16.124-.32A3.558,3.558,0,0,1,5.809,2.3a.756.756,0,0,1,.119-.006,3.318,3.318,0,0,1,1.927.587A.584.584,0,0,0,8.6,2.81L9.419,2a.591.591,0,0,0-.059-.9A5.681,5.681,0,0,0,5.928,0a.794.794,0,0,0-.119.006A5.919,5.919,0,0,0,.634,8.589H.64a5.9,5.9,0,0,0,5.169,3.26.794.794,0,0,0,.119.006,5.649,5.649,0,0,0,3.924-1.435,5.8,5.8,0,0,0,1.766-4.363A5.929,5.929,0,0,0,11.583,5.376Z" transform="translate(1.304 1.186)" fill="#fff"/>
            <path id="Vector-2" data-name="Vector" d="M0,0H14.227V14.227H0Z" fill="none" opacity="0"/>
          </g>
        </g>
      </g>
    </g>
  </g>
</svg>
