<svg id="google_icon" xmlns="http://www.w3.org/2000/svg" width="50" height="50" viewBox="0 0 50 50">
  <rect id="Rectangle_4" data-name="Rectangle 4" width="50" height="50" fill="#c22929"/>
  <g id="Group_4455" data-name="Group 4455" transform="translate(14 14)">
    <g id="google_bold" data-name="google/bold">
      <g id="vuesax_bold_google" data-name="vuesax/bold/google">
        <g id="google">
          <path id="BG_124" data-name="BG 124" d="M0,0H22V22H0Z" fill="none" opacity="0.58"/>
          <path id="Vector" d="M19.332,8.9a.976.976,0,0,0-.979-.874h-7.47a.988.988,0,0,0-.989.981v1.678a.988.988,0,0,0,.989.981h4.462a4.781,4.781,0,0,1-2.018,3.18,5.9,5.9,0,0,1-3.433.981,1.337,1.337,0,0,1-.2-.01,5.945,5.945,0,0,1-5.432-4.063,6.069,6.069,0,0,1-.326-1.943,6.3,6.3,0,0,1,.317-1.943q.089-.265.208-.53A5.938,5.938,0,0,1,9.7,3.808a1.271,1.271,0,0,1,.2-.01,5.569,5.569,0,0,1,3.215.972.981.981,0,0,0,1.237-.118l1.375-1.335a.974.974,0,0,0-.1-1.492A9.534,9.534,0,0,0,9.894,0a1.337,1.337,0,0,0-.2.01,9.86,9.86,0,0,0-8.637,5.4,9.7,9.7,0,0,0,0,8.813h.01a9.857,9.857,0,0,0,8.627,5.4,1.336,1.336,0,0,0,.2.01,9.473,9.473,0,0,0,6.55-2.375,9.565,9.565,0,0,0,2.948-7.223A9.739,9.739,0,0,0,19.332,8.9Z" transform="translate(1.304 1.186)" fill="#fff"/>
          <path id="Vector-2" data-name="Vector" d="M0,0H22V22H0Z" fill="none" opacity="0"/>
        </g>
      </g>
    </g>
  </g>
</svg>
