<svg xmlns="http://www.w3.org/2000/svg" width="24" height="24" viewBox="0 0 24 24">
  <g id="order" transform="translate(-149 -107)">
    <rect id="Rectangle_440" data-name="Rectangle 440" width="24" height="24" transform="translate(149 107)" fill="none"/>
    <g id="Group_4397" data-name="Group 4397">
      <g id="task-square_bulk" data-name="task-square/bulk" transform="translate(151 109)">
        <g id="vuesax_bulk_task-square" data-name="vuesax/bulk/task-square" transform="translate(-2 -2)">
          <g id="task-square">
            <path id="Vector" d="M14.19,0H5.81C2.17,0,0,2.17,0,5.81v8.38C0,17.83,2.17,20,5.81,20h8.38C17.83,20,20,17.83,20,14.19V5.81C20,2.17,17.83,0,14.19,0Z" transform="translate(2 2)" fill="#bd781e" opacity="0.4"/>
            <path id="Vector-2" data-name="Vector" d="M6.75.75A.749.749,0,0,1,6,1.5H.75A.755.755,0,0,1,0,.75.755.755,0,0,1,.75,0H6A.749.749,0,0,1,6.75.75Z" transform="translate(11.56 8.12)" fill="#bd781e"/>
            <path id="Vector-3" data-name="Vector" d="M4.285,1.277l-2.25,2.25a.742.742,0,0,1-.53.22.725.725,0,0,1-.53-.22l-.75-.75a.737.737,0,0,1,0-1.06.754.754,0,0,1,1.06,0l.22.22L3.225.218a.75.75,0,1,1,1.06,1.06Z" transform="translate(5.685 6.622)" fill="#bd781e"/>
            <path id="Vector-4" data-name="Vector" d="M6.75.75A.749.749,0,0,1,6,1.5H.75A.755.755,0,0,1,0,.75.755.755,0,0,1,.75,0H6A.749.749,0,0,1,6.75.75Z" transform="translate(11.56 15.12)" fill="#bd781e"/>
            <path id="Vector-5" data-name="Vector" d="M4.285,1.277l-2.25,2.25a.742.742,0,0,1-.53.22.725.725,0,0,1-.53-.22l-.75-.75a.737.737,0,0,1,0-1.06.754.754,0,0,1,1.06,0l.22.22L3.225.218a.75.75,0,1,1,1.06,1.06Z" transform="translate(5.685 13.623)" fill="#bd781e"/>
          </g>
        </g>
      </g>
    </g>
  </g>
</svg>
