<svg xmlns="http://www.w3.org/2000/svg" width="24" height="24" viewBox="0 0 24 24">
  <g id="search" transform="translate(-989 -138)">
    <g id="search-normal_bulk" data-name="search-normal/bulk" transform="translate(989 138)">
      <g id="vuesax_bulk_search-normal" data-name="vuesax/bulk/search-normal">
        <g id="search-normal">
          <path id="Vector" d="M18.02,9.01A9.01,9.01,0,1,1,9.01,0,9.01,9.01,0,0,1,18.02,9.01Z" transform="translate(2 2)" opacity="0.4"/>
          <path id="Vector-2" data-name="Vector" d="M3.992.95A2.1,2.1,0,0,0,2.022,0,2.02,2.02,0,0,0,.342.79a2.029,2.029,0,0,0-.22,1.84c.43,1.3,1.18,1.59,1.59,1.64a1.148,1.148,0,0,0,.19.01A2.168,2.168,0,0,0,3.682,3.1,2.06,2.06,0,0,0,3.992.95Z" transform="translate(17.998 18)"/>
          <path id="Vector-3" data-name="Vector" d="M0,0H24V24H0Z" fill="none" opacity="0"/>
        </g>
      </g>
    </g>
  </g>
</svg>
