<svg xmlns="http://www.w3.org/2000/svg" width="21.669" height="20.519" viewBox="0 0 21.669 20.519">
  <path id="insta" d="M10.762,36.824a5.269,5.269,0,1,0,0,10.522,5.269,5.269,0,1,0,0-10.522Zm0,8.681a3.425,3.425,0,1,1,0-6.841,3.425,3.425,0,1,1,0,6.841Zm7.077-8.9a1.3,1.3,0,1,1-1.3-1.227A1.26,1.26,0,0,1,17.839,36.609Zm3.679,1.245a5.9,5.9,0,0,0-1.75-4.3A6.658,6.658,0,0,0,15.229,31.9c-1.789-.1-7.15-.1-8.938,0A6.649,6.649,0,0,0,1.751,33.55,5.917,5.917,0,0,0,0,37.849c-.1,1.694-.1,6.772,0,8.466a5.9,5.9,0,0,0,1.75,4.3A6.667,6.667,0,0,0,6.29,52.272c1.789.1,7.15.1,8.938,0a6.615,6.615,0,0,0,4.539-1.657,5.937,5.937,0,0,0,1.75-4.3c.1-1.694.1-6.767,0-8.461ZM19.207,48.133a3.565,3.565,0,0,1-2.059,1.951c-1.426.536-4.81.412-6.386.412s-4.965.119-6.386-.412a3.565,3.565,0,0,1-2.059-1.951c-.566-1.351-.435-4.556-.435-6.048s-.126-4.7.435-6.048a3.565,3.565,0,0,1,2.059-1.951c1.426-.536,4.81-.412,6.386-.412s4.965-.119,6.386.412a3.565,3.565,0,0,1,2.059,1.951c.566,1.351.435,4.556.435,6.048S19.773,46.787,19.207,48.133Z" transform="translate(0.075 -31.825)" fill="#fff"/>
</svg>
