<svg xmlns="http://www.w3.org/2000/svg" width="23.776" height="18.558" viewBox="0 0 23.776 18.558">
  <path id="twitter" d="M21.332,52.707c.015.2.015.406.015.609A13.491,13.491,0,0,1,7.483,66.64,14.178,14.178,0,0,1,0,64.538a10.482,10.482,0,0,0,1.177.058,10.013,10.013,0,0,0,6.05-2A4.861,4.861,0,0,1,2.67,59.348a6.388,6.388,0,0,0,.92.072,5.35,5.35,0,0,0,1.282-.159,4.734,4.734,0,0,1-3.907-4.6v-.058a5.059,5.059,0,0,0,2.2.594A4.635,4.635,0,0,1,1,51.3a4.511,4.511,0,0,1,.664-2.363,14.044,14.044,0,0,0,10.047,4.9,5.089,5.089,0,0,1-.121-1.073,4.779,4.779,0,0,1,4.873-4.683,4.955,4.955,0,0,1,3.56,1.479,9.834,9.834,0,0,0,3.093-1.131,4.709,4.709,0,0,1-2.142,2.581,10.082,10.082,0,0,0,2.806-.725A10.262,10.262,0,0,1,21.332,52.707Z" transform="translate(0 -48.082)" fill="#fff"/>
</svg>
