<svg xmlns="http://www.w3.org/2000/svg" width="55.001" height="55" viewBox="0 0 55.001 55">
  <g id="why_3" transform="translate(0 -0.003)">
    <path id="Path_35" data-name="Path 35" d="M108.759,91.06a17.721,17.721,0,1,0,17.721,17.721A17.741,17.741,0,0,0,108.759,91.06Zm0,32.219a14.5,14.5,0,1,1,14.5-14.5A14.515,14.515,0,0,1,108.759,123.279Z" transform="translate(-81.261 -81.278)" fill="#fff"/>
    <path id="Path_36" data-name="Path 36" d="M182.619,196.531l-8.527,8.527-5.3-5.3a1.611,1.611,0,0,0-2.278,2.278l6.444,6.444a1.611,1.611,0,0,0,2.278,0l9.666-9.666a1.611,1.611,0,0,0-2.278-2.278Z" transform="translate(-148.205 -175.001)" fill="#fff" opacity="0.4"/>
    <path id="Path_37" data-name="Path 37" d="M52.694,16.207l-5.627-3.368L45.805,7.614a4.812,4.812,0,0,0-5.071-3.684l-6.406.5-3.7-3.263a4.813,4.813,0,0,0-6.268,0l-3.7,3.263-6.406-.5A4.811,4.811,0,0,0,9.2,7.556l-1.757,5.6L2.307,16.207A4.813,4.813,0,0,0,.37,22.169L2.562,27.48.37,32.791a4.813,4.813,0,0,0,1.937,5.961L7.924,42.1l1.267,5.247a4.81,4.81,0,0,0,4.689,3.7c.34,0-.042.013,6.721-.505l3.764,3.3a4.813,4.813,0,0,0,6.268,0l3.764-3.3,6.339.491a4.813,4.813,0,0,0,5.071-3.684l1.262-5.226c6.879-4.117,5.42-3.241,5.627-3.368a4.813,4.813,0,0,0,1.937-5.961L52.439,27.48l2.192-5.311a4.813,4.813,0,0,0-1.937-5.961ZM49.207,28.094l2.445,5.926A1.6,1.6,0,0,1,51.013,36l-6.181,3.7a1.611,1.611,0,0,0-.739,1L42.674,46.59a1.6,1.6,0,0,1-1.69,1.228l-7.016-.543a1.612,1.612,0,0,0-1.187.4L28.535,51.4a1.6,1.6,0,0,1-2.074,0l-4.245-3.726a1.611,1.611,0,0,0-1.187-.4l-7.016.543a1.6,1.6,0,0,1-1.69-1.228L10.9,40.684a1.611,1.611,0,0,0-.741-1.006L3.986,36a1.6,1.6,0,0,1-.638-1.982l2.445-5.926a1.61,1.61,0,0,0,0-1.229L3.348,20.939a1.6,1.6,0,0,1,.637-1.982l5.638-3.35a1.611,1.611,0,0,0,.714-.9C12.416,8.081,12.3,8.469,12.323,8.37a1.6,1.6,0,0,1,1.69-1.228L21.1,7.69a1.611,1.611,0,0,0,1.19-.4l4.174-3.684a1.6,1.6,0,0,1,2.071,0l4.175,3.684a1.612,1.612,0,0,0,1.19.4l7.085-.548a1.6,1.6,0,0,1,1.69,1.228l1.421,5.883a1.611,1.611,0,0,0,.739,1l6.181,3.7a1.6,1.6,0,0,1,.639,1.983l-2.445,5.926a1.611,1.611,0,0,0,0,1.229Z" transform="translate(0 0)" fill="#fff"/>
  </g>
</svg>
