<svg xmlns="http://www.w3.org/2000/svg" width="50.633" height="55" viewBox="0 0 50.633 55">
  <g id="why_2" transform="translate(-20.328)">
    <path id="Path_33" data-name="Path 33" d="M70.133,34.184l-.006-.009L56.952,14.942a3.238,3.238,0,0,0-2-1.355l-.041-.009-8.143-1.556A10.9,10.9,0,1,0,27.2,17.655L21.232,23.9a3.246,3.246,0,0,0-.9,2.252V50.165A4.84,4.84,0,0,0,25.163,55h21.5a4.816,4.816,0,0,0,3.526-1.531L68.828,40.9a4.833,4.833,0,0,0,1.3-6.712ZM35.912,3.223a7.745,7.745,0,0,1,7.665,8.19c-7.593-1.451-7.156-1.372-7.282-1.384a0,0,0,0,0,0,0,3.261,3.261,0,0,0-2.735.983L29.485,15.27a7.854,7.854,0,0,1-1.248-4.261,7.74,7.74,0,0,1,7.676-7.786ZM48.273,50.166a1.612,1.612,0,0,1-1.581,1.61H25.163a1.614,1.614,0,0,1-1.612-1.612V26.151a.039.039,0,0,1,.01-.024l5.928-6.2a10.678,10.678,0,0,0,6.374,2.089,1.612,1.612,0,0,0,0-3.223,7.467,7.467,0,0,1-4.11-1.233l4.134-4.323a.031.031,0,0,1,.026-.011.027.027,0,0,1,.025.011L48.263,26.127a.033.033,0,0,1,.01.024ZM67.026,38.223,51.5,48.7V43.991l10.414-7.024a1.612,1.612,0,1,0-1.8-2.672L51.5,40.1V35.759L58.1,31.3a1.611,1.611,0,1,0-1.8-2.672L51.5,31.872V26.15a3.241,3.241,0,0,0-.9-2.252l-9.2-9.623,12.88,2.461a.038.038,0,0,1,.016.013l.006.01L67.463,35.991A1.609,1.609,0,0,1,67.026,38.223Z" fill="#fff"/>
    <path id="Path_34" data-name="Path 34" d="M118.318,237.783a16.018,16.018,0,0,1-4.073-1.894c-.69-.541-.406-2.429.927-2.831a4.18,4.18,0,0,1,2.925.422,1.607,1.607,0,1,0,1.364-2.909,9.7,9.7,0,0,0-1.772-.617v-.834a1.612,1.612,0,0,0-3.223,0v.792c-3.985,1.014-5.043,6.292-2.21,8.514a17.375,17.375,0,0,0,4.988,2.4c2.825,1,1.592,4.882-1.229,4.9a4.639,4.639,0,0,1-3.331-.874,1.612,1.612,0,0,0-2.266.523,1.646,1.646,0,0,0,.555,2.209,7.237,7.237,0,0,0,3.494,1.31v.6a1.612,1.612,0,1,0,3.223,0v-.778C122.886,247.262,123.867,239.745,118.318,237.783Z" transform="translate(-80.215 -203.069)" fill="#fff" opacity="0.4"/>
  </g>
</svg>
