<svg id="why_1" xmlns="http://www.w3.org/2000/svg" width="55" height="55" viewBox="0 0 55 55">
  <g id="Group_12" data-name="Group 12" transform="translate(19.325 6.563)" opacity="0.4">
    <g id="Group_11" data-name="Group 11">
      <path id="Path_26" data-name="Path 26" d="M181.713,60a1.622,1.622,0,0,0-1.613,1.657,1.585,1.585,0,0,0,1.613,1.613,1.622,1.622,0,0,0,1.657-1.613A1.659,1.659,0,0,0,181.713,60Z" transform="translate(-180.1 -60)" fill="#fff"/>
    </g>
  </g>
  <g id="Group_14" data-name="Group 14" transform="translate(19.325 12.876)" opacity="0.4">
    <g id="Group_13" data-name="Group 13">
      <path id="Path_27" data-name="Path 27" d="M181.714,120a1.622,1.622,0,0,0-1.613,1.657,1.585,1.585,0,0,0,1.613,1.613,1.622,1.622,0,0,0,1.657-1.613A1.659,1.659,0,0,0,181.714,120Z" transform="translate(-180.101 -120)" fill="#fff"/>
    </g>
  </g>
  <g id="Group_16" data-name="Group 16" transform="translate(19.325 19.314)" opacity="0.4">
    <g id="Group_15" data-name="Group 15">
      <path id="Path_28" data-name="Path 28" d="M181.714,180a1.622,1.622,0,0,0-1.613,1.657,1.585,1.585,0,0,0,1.613,1.613,1.622,1.622,0,0,0,1.657-1.613A1.659,1.659,0,0,0,181.714,180Z" transform="translate(-180.101 -180)" fill="#fff"/>
    </g>
  </g>
  <g id="Group_18" data-name="Group 18" transform="translate(32.416 19.314)" opacity="0.4">
    <g id="Group_17" data-name="Group 17">
      <path id="Path_29" data-name="Path 29" d="M303.714,180a1.622,1.622,0,0,0-1.613,1.657,1.585,1.585,0,0,0,1.613,1.613,1.622,1.622,0,0,0,1.657-1.613A1.659,1.659,0,0,0,303.714,180Z" transform="translate(-302.101 -180)" fill="#fff"/>
    </g>
  </g>
  <g id="Group_20" data-name="Group 20" transform="translate(32.416 12.876)" opacity="0.4">
    <g id="Group_19" data-name="Group 19">
      <path id="Path_30" data-name="Path 30" d="M303.714,120a1.622,1.622,0,0,0-1.613,1.657,1.585,1.585,0,0,0,1.613,1.613,1.622,1.622,0,0,0,1.657-1.613A1.659,1.659,0,0,0,303.714,120Z" transform="translate(-302.101 -120)" fill="#fff"/>
    </g>
  </g>
  <g id="Group_22" data-name="Group 22" transform="translate(32.416 6.563)" opacity="0.4">
    <g id="Group_21" data-name="Group 21">
      <path id="Path_31" data-name="Path 31" d="M303.713,60a1.622,1.622,0,0,0-1.613,1.657,1.585,1.585,0,0,0,1.613,1.613,1.622,1.622,0,0,0,1.657-1.613A1.659,1.659,0,0,0,303.713,60Z" transform="translate(-302.1 -60)" fill="#fff"/>
    </g>
  </g>
  <g id="Group_24" data-name="Group 24">
    <g id="Group_23" data-name="Group 23">
      <path id="Path_32" data-name="Path 32" d="M46.233,22.592l1.054-10.067A11.192,11.192,0,0,0,36.142,0H18.858A11.192,11.192,0,0,0,7.712,12.525L8.767,22.592A8.053,8.053,0,0,0,3.223,37.056v6.665a4.842,4.842,0,0,0,3.223,4.557v5.111A1.611,1.611,0,0,0,8.057,55h4.834a1.611,1.611,0,0,0,1.563-1.221l1.306-5.225H39.24l1.306,5.225A1.611,1.611,0,0,0,42.109,55h4.834a1.611,1.611,0,0,0,1.611-1.611V48.278a4.842,4.842,0,0,0,3.223-4.557V37.056a8.053,8.053,0,0,0-5.544-14.464ZM18.858,3.223H36.142A7.845,7.845,0,0,1,44,12.169l-1.127,11.5a8.093,8.093,0,0,0-3.625,4.564,30.169,30.169,0,0,0-11.854-2.451,29.082,29.082,0,0,0-11.64,2.448,8.094,8.094,0,0,0-3.624-4.562l-1.235-11.5A8,8,0,0,1,18.858,3.223Zm20.028,28.39v2.225a1.613,1.613,0,0,1-1.611,1.611H17.725a1.613,1.613,0,0,1-1.611-1.611V31.612a25.85,25.85,0,0,1,11.279-2.63A26.725,26.725,0,0,1,38.887,31.612ZM11.633,51.777H9.668V48.555h2.77Zm33.7,0H43.368l-.806-3.223h2.77Zm1.611-16.328a1.611,1.611,0,0,0,0,3.223,8.062,8.062,0,0,0,1.611-.162v5.211a1.613,1.613,0,0,1-1.611,1.611H8.057a1.613,1.613,0,0,1-1.611-1.611V38.51a8.062,8.062,0,0,0,1.611.162,1.611,1.611,0,0,0,0-3.223,4.834,4.834,0,1,1,4.834-4.834v3.223a4.839,4.839,0,0,0,4.834,4.834H37.275a4.839,4.839,0,0,0,4.834-4.834V30.615a4.834,4.834,0,1,1,4.834,4.834Z" fill="#fff"/>
    </g>
  </g>
</svg>
