<svg xmlns="http://www.w3.org/2000/svg" width="50" height="50" viewBox="0 0 50 50">
  <g id="vision" transform="translate(0.001)">
    <path id="Path_39" data-name="Path 39" d="M1.482,8.988A1.482,1.482,0,0,0,2.963,7.507V2.963H7.507A1.482,1.482,0,0,0,7.507,0H1.482A1.482,1.482,0,0,0,0,1.482V7.507A1.482,1.482,0,0,0,1.482,8.988Z" transform="translate(-0.001)" fill="#fff"/>
    <path id="Path_40" data-name="Path 40" d="M1.482,429.988H7.507a1.482,1.482,0,1,0,0-2.963H2.963v-4.544a1.482,1.482,0,1,0-2.963,0v6.025A1.482,1.482,0,0,0,1.482,429.988Z" transform="translate(-0.001 -379.988)" fill="#fff"/>
    <path id="Path_41" data-name="Path 41" d="M428.507,8.988a1.482,1.482,0,0,0,1.482-1.482V1.482A1.482,1.482,0,0,0,428.507,0h-6.025a1.482,1.482,0,1,0,0,2.963h4.544V7.507A1.482,1.482,0,0,0,428.507,8.988Z" transform="translate(-379.989)" fill="#fff"/>
    <path id="Path_42" data-name="Path 42" d="M428.507,421a1.482,1.482,0,0,0-1.482,1.482v4.544h-4.544a1.482,1.482,0,1,0,0,2.963h6.025a1.482,1.482,0,0,0,1.482-1.482v-6.025A1.482,1.482,0,0,0,428.507,421Z" transform="translate(-379.989 -379.988)" fill="#fff"/>
    <path id="Path_43" data-name="Path 43" d="M161.371,171.742A10.371,10.371,0,1,0,151,161.371,10.383,10.383,0,0,0,161.371,171.742Zm0-17.779a7.408,7.408,0,1,1-7.408,7.408A7.416,7.416,0,0,1,161.371,153.963Z" transform="translate(-136.372 -136.371)" fill="#fff" opacity="0.4"/>
    <path id="Path_44" data-name="Path 44" d="M215.445,219.89A4.445,4.445,0,1,0,211,215.445,4.45,4.45,0,0,0,215.445,219.89Zm0-5.926a1.482,1.482,0,1,1-1.482,1.482A1.483,1.483,0,0,1,215.445,213.963Z" transform="translate(-190.445 -190.445)" fill="#fff" opacity="0.4"/>
    <path id="Path_45" data-name="Path 45" d="M7.423,115.394c4.941,4.215,11.043,7.629,17.576,7.629s12.636-3.415,17.576-7.629a48.583,48.583,0,0,0,7.146-7.53,1.448,1.448,0,0,0,0-1.706,48.578,48.578,0,0,0-7.146-7.53C37.635,94.414,31.533,91,25,91S12.364,94.415,7.423,98.629a48.585,48.585,0,0,0-7.146,7.53,1.448,1.448,0,0,0,0,1.706,48.592,48.592,0,0,0,7.146,7.53ZM25,93.911c6.218,0,11.925,3.744,15.618,6.885a48.3,48.3,0,0,1,6.064,6.215,48.591,48.591,0,0,1-5.959,6.12c-4.073,3.49-9.662,6.981-15.723,6.981-6.218,0-11.925-3.744-15.618-6.885a48.294,48.294,0,0,1-6.064-6.215,48.6,48.6,0,0,1,5.96-6.12c4.073-3.49,9.662-6.98,15.723-6.98Z" transform="translate(0 -82.012)" fill="#fff"/>
  </g>
</svg>
